<?xml version="1.0" standalone="no"?>
<!DOCTYPE svg PUBLIC "-//W3C//DTD SVG 20010904//EN"
 "http://www.w3.org/TR/2001/REC-SVG-20010904/DTD/svg10.dtd">
<svg version="1.0" xmlns="http://www.w3.org/2000/svg"
 width="225.000000pt" height="225.000000pt" viewBox="0 0 225.000000 225.000000"
 preserveAspectRatio="xMidYMid meet">

<g transform="translate(0.000000,225.000000) scale(0.100000,-0.100000)"
fill="#000000" stroke="none">
<path d="M913 1911 c-257 -147 -323 -187 -317 -194 3 -3 -3 -4 -13 -4 -10 1
-17 -4 -15 -11 1 -8 -2 -11 -8 -7 -18 11 -189 -94 -205 -125 -13 -24 -15 -97
-15 -444 0 -423 4 -474 37 -462 8 3 11 2 8 -4 -6 -10 48 -42 59 -35 3 3 4 2 1
-2 -7 -9 124 -85 135 -78 5 3 12 -1 17 -9 12 -20 214 -136 226 -129 6 3 7 2 4
-4 -4 -5 6 -16 21 -24 15 -8 75 -42 134 -77 137 -80 148 -80 276 -6 53 31 117
68 142 82 25 14 77 44 115 67 39 23 137 79 218 126 103 58 153 92 163 111 11
22 14 106 14 450 0 473 4 448 -73 492 -23 13 -109 63 -190 110 -81 47 -150 86
-152 86 -2 0 -45 25 -95 55 -49 30 -95 53 -102 51 -7 -1 -9 -1 -5 2 5 2 -10
15 -33 28 -23 13 -47 21 -53 17 -5 -3 -7 -1 -4 4 8 12 -51 43 -80 43 -11 0
-105 -49 -210 -109z m467 -376 c0 -8 -5 -15 -11 -15 -8 0 -10 -15 -7 -45 5
-39 3 -45 -13 -45 -16 0 -19 8 -19 44 0 25 -4 48 -10 51 -21 13 -9 25 25 25
24 0 35 -5 35 -15z m-470 -17 c0 -5 15 -8 33 -8 37 0 157 -55 157 -72 0 -6 7
-7 16 -4 8 3 12 2 9 -4 -6 -10 18 -53 26 -46 2 2 5 -5 6 -17 1 -12 5 -47 9
-77 12 -109 -36 -199 -134 -247 -53 -26 -67 -28 -204 -32 l-148 -3 0 258 0
259 115 0 c63 0 115 -3 115 -7z m397 -6 c18 -11 15 -119 -3 -126 -28 -11 -50
8 -45 37 1 4 -6 10 -14 13 -21 8 -19 61 3 73 21 13 43 13 59 3z m195 -25 c4
-42 22 -41 26 1 2 20 8 32 15 29 15 -5 21 -32 13 -63 -5 -20 -12 -24 -46 -24
-39 0 -40 1 -41 38 -1 27 -3 30 -6 12 -7 -35 -21 -50 -48 -50 -29 0 -45 19
-43 50 3 33 12 38 74 39 52 0 53 0 56 -32z m78 -297 l0 -180 -187 2 -188 3 -3
155 c-1 85 0 165 3 178 5 22 7 22 190 22 l185 0 0 -180z m-940 -179 l0 -40 85
-3 c47 -2 87 -1 88 2 2 3 2 -1 0 -8 -1 -8 -3 -58 -3 -113 l0 -99 -51 0 -50 0
2 68 3 67 -37 3 -37 3 0 -70 0 -71 -50 0 -50 0 0 150 0 150 50 0 50 0 0 -39z
m1011 -39 c-5 -2 4 -16 20 -32 16 -16 29 -37 30 -47 0 -16 1 -16 9 2 5 15 7 9
6 -22 0 -22 -3 -41 -6 -41 -3 0 -39 0 -79 -1 -59 -1 -72 -4 -63 -13 7 -7 36
-12 67 -11 54 1 55 1 55 -28 0 -24 -4 -29 -26 -29 -14 0 -23 -4 -20 -8 9 -14
-104 6 -130 23 -38 25 -57 77 -45 122 6 20 7 41 4 47 -3 6 -2 8 2 3 5 -4 16 0
26 9 9 8 28 18 43 22 24 7 126 10 107 4z m-641 -15 c32 -25 50 -62 50 -105 0
-37 -6 -50 -34 -78 -43 -43 -95 -46 -149 -10 -20 14 -37 20 -39 14 -2 -6 -5
20 -6 56 -3 65 -1 69 32 102 29 29 40 34 83 34 26 0 55 -6 63 -13z m283 -7
c12 -17 16 -18 20 -6 3 8 1 16 -4 18 -6 2 13 5 42 6 80 3 89 -10 89 -125 l0
-93 -45 0 -45 0 0 68 c0 73 -4 84 -26 75 -10 -4 -14 -24 -14 -74 l0 -69 -45 0
-45 0 0 66 c0 40 -4 63 -10 59 -6 -4 -7 1 -3 11 4 12 2 15 -8 12 -10 -3 -15
-25 -17 -76 l-3 -72 -49 0 -48 0 -4 58 c-1 31 -2 79 0 105 l3 48 54 -2 c30 -2
58 0 62 4 3 4 23 7 44 7 27 0 42 -6 52 -20z m487 -162 c0 -22 -15 -38 -36 -38
-18 0 -24 5 -24 23 0 34 18 48 41 34 11 -7 19 -15 19 -19z"/>
<path d="M820 1265 l0 -135 55 0 c67 0 109 20 135 63 23 38 25 85 6 131 -18
42 -84 76 -149 76 l-47 0 0 -135z"/>
<path d="M1260 1476 c0 -8 7 -16 15 -20 10 -4 15 1 15 14 0 11 -7 20 -15 20
-8 0 -15 -6 -15 -14z"/>
<path d="M1403 1483 c11 -3 16 -11 13 -19 -3 -8 -1 -14 4 -14 6 0 10 9 10 20
0 14 -6 20 -22 19 -19 -1 -19 -2 -5 -6z"/>
<path d="M1330 1190 l0 -60 60 0 60 0 0 60 0 60 -60 0 -60 0 0 -60z"/>
<path d="M1560 895 c-11 -13 -7 -15 25 -15 32 0 36 2 25 15 -7 8 -18 15 -25
15 -7 0 -18 -7 -25 -15z"/>
<path d="M915 870 c-8 -27 12 -52 39 -48 16 2 21 10 21 33 0 25 -4 31 -27 33
-19 2 -28 -2 -33 -18z"/>
</g>
</svg>
